<?xml version="1.0" encoding="UTF-8" standalone="no"?>
<svg
   width="186.3mm"
   height="41.299999mm"
   viewBox="-4 -39 186.3 41.299999"
   version="1.1"
   id="svg1"
   sodipodi:docname="voeding_onderkant_3.1mm_01.svg"
   inkscape:version="1.3.1 (9b9bdc1480, 2023-11-25, custom)"
   xmlns:inkscape="http://www.inkscape.org/namespaces/inkscape"
   xmlns:sodipodi="http://sodipodi.sourceforge.net/DTD/sodipodi-0.dtd"
   xmlns="http://www.w3.org/2000/svg"
   xmlns:svg="http://www.w3.org/2000/svg"
   xmlns:rdf="http://www.w3.org/1999/02/22-rdf-syntax-ns#"
   xmlns:cc="http://creativecommons.org/ns#"
   xmlns:dc="http://purl.org/dc/elements/1.1/">
  <defs
     id="defs1" />
  <sodipodi:namedview
     id="namedview1"
     pagecolor="#505050"
     bordercolor="#ffffff"
     borderopacity="1"
     inkscape:showpageshadow="0"
     inkscape:pageopacity="0"
     inkscape:pagecheckerboard="1"
     inkscape:deskcolor="#505050"
     inkscape:document-units="mm"
     inkscape:zoom="3.8688276"
     inkscape:cx="352.17388"
     inkscape:cy="78.059824"
     inkscape:window-width="3770"
     inkscape:window-height="2096"
     inkscape:window-x="0"
     inkscape:window-y="0"
     inkscape:window-maximized="1"
     inkscape:current-layer="svg1" />
  <title
     id="title1">OpenSCAD Model</title>
  <path
     d="M -3.95,-0.85 H 10.4 v 3.1 h 11.25 v -3.1 H 32.9 v 3.1 h 11.25 v -3.1 H 55.4 v 3.1 h 11.25 v -3.1 H 77.9 v 3.1 h 11.25 v -3.1 h 11.25 v 3.1 h 11.25 v -3.1 h 11.25 v 3.1 h 11.25 v -3.1 h 11.25 v 3.1 h 11.25 v -3.1 h 11.25 v 3.1 h 11.25 V -9.6 h 3.1 v -8.75 h -3.1 v -8.75 h 3.1 v -8.75 H 167.9 v -3.1 h -11.25 v 3.1 H 145.4 v -3.1 h -11.25 v 3.1 H 122.9 v -3.1 h -11.25 v 3.1 H 100.4 v -3.1 H 89.15 v 3.1 H 77.9 v -3.1 H 66.65 v 3.1 H 55.4 v -3.1 H 44.15 v 3.1 H 32.9 v -3.1 H 21.65 v 3.1 H 10.4 v -3.1 H -0.85 v 11.85 h -3.1 v 8.75 h 3.1 v 8.75 h -3.1 z"
     stroke="black"
     fill="lightgray"
     stroke-width="0.5"
     id="path1"
     style="fill:none;stroke:#ff0000;stroke-width:0.1" />
  <metadata
     id="metadata1">
    <rdf:RDF>
      <cc:Work
         rdf:about="">
        <dc:title>OpenSCAD Model</dc:title>
      </cc:Work>
    </rdf:RDF>
  </metadata>
</svg>
