<?xml version="1.0" encoding="UTF-8" standalone="no"?>
<svg
   width="180.10001mm"
   height="18.200001mm"
   viewBox="0 11 180.10001 18.200001"
   version="1.1"
   id="svg1"
   sodipodi:docname="voeding_voorkant_3.1mm_02.svg"
   inkscape:version="1.3.1 (9b9bdc1480, 2023-11-25, custom)"
   xmlns:inkscape="http://www.inkscape.org/namespaces/inkscape"
   xmlns:sodipodi="http://sodipodi.sourceforge.net/DTD/sodipodi-0.dtd"
   xmlns="http://www.w3.org/2000/svg"
   xmlns:svg="http://www.w3.org/2000/svg"
   xmlns:rdf="http://www.w3.org/1999/02/22-rdf-syntax-ns#"
   xmlns:cc="http://creativecommons.org/ns#"
   xmlns:dc="http://purl.org/dc/elements/1.1/">
  <defs
     id="defs1" />
  <sodipodi:namedview
     id="namedview1"
     pagecolor="#505050"
     bordercolor="#ffffff"
     borderopacity="1"
     inkscape:showpageshadow="0"
     inkscape:pageopacity="0"
     inkscape:pagecheckerboard="1"
     inkscape:deskcolor="#505050"
     inkscape:document-units="mm"
     showgrid="false"
     inkscape:zoom="2.8572598"
     inkscape:cx="295.21292"
     inkscape:cy="11.549527"
     inkscape:window-width="3770"
     inkscape:window-height="2096"
     inkscape:window-x="0"
     inkscape:window-y="0"
     inkscape:window-maximized="1"
     inkscape:current-layer="svg1" />
  <title
     id="title1">OpenSCAD Model</title>
  <path
     d="M 0.05000305,11.05 H 180.05 v 15 H 168.8 v 1.2401 h 0.006 l 0.013,5e-4 0.013,0.0011 0.013,0.0016 0.013,0.0022 0.013,0.0027 0.012,0.0032 0.013,0.0038 0.012,0.0042 0.012,0.0048 0.012,0.0053 0.012,0.0058 0.011,0.0062 0.011,0.0068 0.011,0.0071 0.01,0.0077 0.011,0.008 0.009,0.0085 0.01,0.0089 0.009,0.0093 0.009,0.0096 0.008,0.01 0.008,0.0104 0.007,0.0106 0.007,0.011 0.007,0.0113 0.006,0.0115 0.005,0.0117 0.005,0.012 0.005,0.0122 0.004,0.0123 0.003,0.0125 0.003,0.0126 0.003,0.0128 0.002,0.0128 0.001,0.013 0.001,0.0129 v 0.013 0.013 l -0.001,0.0129 -0.001,0.013 -0.002,0.0128 -0.003,0.0128 -0.003,0.0126 -0.003,0.0125 -0.004,0.0123 -0.005,0.0122 -0.005,0.012 -0.005,0.0117 -0.006,0.0115 -0.007,0.0113 -0.007,0.011 -0.007,0.0106 -0.008,0.0104 -0.008,0.01 -0.009,0.0096 -0.009,0.0093 -0.01,0.0089 -0.009,0.0085 -0.011,0.008 -0.01,0.0077 -0.011,0.0071 -0.011,0.0068 -0.011,0.0062 -0.012,0.0058 -0.012,0.0053 -0.012,0.0048 -0.012,0.0042 -0.013,0.0038 -0.012,0.0032 -0.013,0.0027 -0.013,0.0022 -0.013,0.0016 -0.013,0.0011 -0.013,5e-4 H 168.8 V 29.15 h -11.25 v -3.1 H 146.3 v 1.2401 h 0.006 l 0.013,5e-4 0.013,0.0011 0.013,0.0016 0.013,0.0022 0.013,0.0027 0.012,0.0032 0.013,0.0038 0.012,0.0042 0.012,0.0048 0.012,0.0053 0.012,0.0058 0.011,0.0062 0.011,0.0068 0.011,0.0071 0.01,0.0077 0.011,0.008 0.009,0.0085 0.01,0.0089 0.009,0.0093 0.009,0.0096 0.008,0.01 0.008,0.0104 0.007,0.0106 0.007,0.011 0.007,0.0113 0.006,0.0115 0.005,0.0117 0.005,0.012 0.005,0.0122 0.004,0.0123 0.003,0.0125 0.003,0.0126 0.003,0.0128 0.002,0.0128 0.001,0.013 0.001,0.0129 v 0.013 0.013 l -0.001,0.0129 -0.001,0.013 -0.002,0.0128 -0.003,0.0128 -0.003,0.0126 -0.003,0.0125 -0.004,0.0123 -0.005,0.0122 -0.005,0.012 -0.005,0.0117 -0.006,0.0115 -0.007,0.0113 -0.007,0.011 -0.007,0.0106 -0.008,0.0104 -0.008,0.01 -0.009,0.0096 -0.009,0.0093 -0.01,0.0089 -0.009,0.0085 -0.011,0.008 -0.01,0.0077 -0.011,0.0071 -0.011,0.0068 -0.011,0.0062 -0.012,0.0058 -0.012,0.0053 -0.012,0.0048 -0.012,0.0042 -0.013,0.0038 -0.012,0.0032 -0.013,0.0027 -0.013,0.0022 -0.013,0.0016 -0.013,0.0011 -0.013,5e-4 H 146.3 V 29.15 h -11.25 v -3.1 H 123.8 v 1.2401 h 0.006 l 0.013,5e-4 0.013,0.0011 0.013,0.0016 0.013,0.0022 0.013,0.0027 0.012,0.0032 0.013,0.0038 0.012,0.0042 0.012,0.0048 0.012,0.0053 0.012,0.0058 0.011,0.0062 0.011,0.0068 0.011,0.0071 0.01,0.0077 0.011,0.008 0.009,0.0085 0.01,0.0089 0.009,0.0093 0.009,0.0096 0.008,0.01 0.008,0.0104 0.007,0.0106 0.007,0.011 0.007,0.0113 0.006,0.0115 0.005,0.0117 0.005,0.012 0.005,0.0122 0.004,0.0123 0.003,0.0125 0.003,0.0126 0.003,0.0128 0.002,0.0128 10e-4,0.013 0.001,0.0129 v 0.013 0.013 l -0.001,0.0129 -10e-4,0.013 -0.002,0.0128 -0.003,0.0128 -0.003,0.0126 -0.003,0.0125 -0.004,0.0123 -0.005,0.0122 -0.005,0.012 -0.005,0.0117 -0.006,0.0115 -0.007,0.0113 -0.007,0.011 -0.007,0.0106 -0.008,0.0104 -0.008,0.01 -0.009,0.0096 -0.009,0.0093 -0.01,0.0089 -0.009,0.0085 -0.011,0.008 -0.01,0.0077 -0.011,0.0071 -0.011,0.0068 -0.011,0.0062 -0.012,0.0058 -0.012,0.0053 -0.012,0.0048 -0.012,0.0042 -0.013,0.0038 -0.012,0.0032 -0.013,0.0027 -0.013,0.0022 -0.013,0.0016 -0.013,0.0011 -0.013,5e-4 H 123.8 V 29.15 h -11.25 v -3.1 H 101.3 v 1.2401 h 0.006 l 0.013,5e-4 0.013,0.0011 0.013,0.0016 0.013,0.0022 0.013,0.0027 0.012,0.0032 0.013,0.0038 0.012,0.0042 0.012,0.0048 0.012,0.0053 0.012,0.0058 0.011,0.0062 0.011,0.0068 0.011,0.0071 0.01,0.0077 0.011,0.008 0.009,0.0085 0.01,0.0089 0.009,0.0093 0.009,0.0096 0.008,0.01 0.008,0.0104 0.007,0.0106 0.007,0.011 0.007,0.0113 0.006,0.0115 0.005,0.0117 0.005,0.012 0.005,0.0122 0.004,0.0123 0.003,0.0125 0.003,0.0126 0.003,0.0128 0.002,0.0128 10e-4,0.013 0.001,0.0129 v 0.013 0.013 l -0.001,0.0129 -10e-4,0.013 -0.002,0.0128 -0.003,0.0128 -0.003,0.0126 -0.003,0.0125 -0.004,0.0123 -0.005,0.0122 -0.005,0.012 -0.005,0.0117 -0.006,0.0115 -0.007,0.0113 -0.007,0.011 -0.007,0.0106 -0.008,0.0104 -0.008,0.01 -0.009,0.0096 -0.009,0.0093 -0.01,0.0089 -0.009,0.0085 -0.011,0.008 -0.01,0.0077 -0.011,0.0071 -0.011,0.0068 -0.011,0.0062 -0.012,0.0058 -0.012,0.0053 -0.012,0.0048 -0.012,0.0042 -0.013,0.0038 -0.012,0.0032 -0.013,0.0027 -0.013,0.0022 -0.013,0.0016 -0.013,0.0011 -0.013,5e-4 H 101.3 V 29.15 H 90.050003 v -3.1 h -11.25 v 1.2401 h 0.0065 l 0.013,5e-4 0.0129,0.0011 0.0129,0.0016 0.0128,0.0022 0.0127,0.0027 0.0126,0.0032 0.0124,0.0038 0.0123,0.0042 0.012,0.0048 0.0119,0.0053 0.0116,0.0058 0.0114,0.0062 0.0111,0.0068 0.0108,0.0071 0.0105,0.0077 0.0102,0.008 0.0098,0.0085 0.0095,0.0089 0.0091,0.0093 0.0087,0.0096 0.0082,0.01 0.0079,0.0104 0.0074,0.0106 0.007,0.011 0.0065,0.0113 0.006,0.0115 0.0055,0.0117 0.005,0.012 0.0046,0.0122 0.004,0.0123 0.0035,0.0125 0.0029,0.0126 0.0025,0.0128 0.0019,0.0128 0.0013,0.013 8e-4,0.0129 3e-4,0.013 -3e-4,0.013 -8e-4,0.0129 -0.0013,0.013 -0.0019,0.0128 -0.0025,0.0128 -0.0029,0.0126 -0.0035,0.0125 -0.004,0.0123 -0.0046,0.0122 -0.005,0.012 -0.0055,0.0117 -0.006,0.0115 -0.0065,0.0113 -0.007,0.011 -0.0074,0.0106 -0.0079,0.0104 -0.0082,0.01 -0.0087,0.0096 -0.0091,0.0093 -0.0095,0.0089 -0.0098,0.0085 -0.0102,0.008 -0.0105,0.0077 -0.0108,0.0071 -0.0111,0.0068 -0.0114,0.0062 -0.0116,0.0058 -0.0119,0.0053 -0.012,0.0048 -0.0123,0.0042 -0.0124,0.0038 -0.0126,0.0032 -0.0127,0.0027 -0.0128,0.0022 -0.0129,0.0016 -0.0129,0.0011 -0.013,5e-4 h -0.0065 V 29.15 h -11.25 v -3.1 h -11.25 v 1.2401 h 0.0065 l 0.013,5e-4 0.0129,0.0011 0.0129,0.0016 0.0128,0.0022 0.0127,0.0027 0.0126,0.0032 0.0124,0.0038 0.0123,0.0042 0.012,0.0048 0.0119,0.0053 0.0116,0.0058 0.0114,0.0062 0.0111,0.0068 0.0108,0.0071 0.0105,0.0077 0.0102,0.008 0.0098,0.0085 0.0095,0.0089 0.0091,0.0093 0.0087,0.0096 0.0082,0.01 0.0079,0.0104 0.0074,0.0106 0.007,0.011 0.0065,0.0113 0.006,0.0115 0.0055,0.0117 0.005,0.012 0.0046,0.0122 0.004,0.0123 0.0035,0.0125 0.0029,0.0126 0.0025,0.0128 0.0019,0.0128 0.0013,0.013 8e-4,0.0129 3e-4,0.013 -3e-4,0.013 -8e-4,0.0129 -0.0013,0.013 -0.0019,0.0128 -0.0025,0.0128 -0.0029,0.0126 -0.0035,0.0125 -0.004,0.0123 -0.0046,0.0122 -0.005,0.012 -0.0055,0.0117 -0.006,0.0115 -0.0065,0.0113 -0.007,0.011 -0.0074,0.0106 -0.0079,0.0104 -0.0082,0.01 -0.0087,0.0096 -0.0091,0.0093 -0.0095,0.0089 -0.0098,0.0085 -0.0102,0.008 -0.0105,0.0077 -0.0108,0.0071 -0.0111,0.0068 -0.0114,0.0062 -0.0116,0.0058 -0.0119,0.0053 -0.012,0.0048 -0.0123,0.0042 -0.0124,0.0038 -0.0126,0.0032 -0.0127,0.0027 -0.0128,0.0022 -0.0129,0.0016 -0.0129,0.0011 -0.013,5e-4 h -0.0065 V 29.15 h -11.25 v -3.1 h -11.25 v 1.2401 h 0.0065 l 0.013,5e-4 0.0129,0.0011 0.0129,0.0016 0.0128,0.0022 0.0127,0.0027 0.0126,0.0032 0.0124,0.0038 0.0123,0.0042 0.012,0.0048 0.0119,0.0053 0.0116,0.0058 0.0114,0.0062 0.0111,0.0068 0.0108,0.0071 0.0105,0.0077 0.0102,0.008 0.0098,0.0085 0.0095,0.0089 0.0091,0.0093 0.0087,0.0096 0.0082,0.01 0.0079,0.0104 0.0074,0.0106 0.007,0.011 0.0065,0.0113 0.006,0.0115 0.0055,0.0117 0.005,0.012 0.0046,0.0122 0.004,0.0123 0.0035,0.0125 0.0029,0.0126 0.0025,0.0128 0.0019,0.0128 0.0013,0.013 8e-4,0.0129 3e-4,0.013 -3e-4,0.013 -8e-4,0.0129 -0.0013,0.013 -0.0019,0.0128 -0.0025,0.0128 -0.0029,0.0126 -0.0035,0.0125 -0.004,0.0123 -0.0046,0.0122 -0.005,0.012 -0.0055,0.0117 -0.006,0.0115 -0.0065,0.0113 -0.007,0.011 -0.0074,0.0106 -0.0079,0.0104 -0.0082,0.01 -0.0087,0.0096 -0.0091,0.0093 -0.0095,0.0089 -0.0098,0.0085 -0.0102,0.008 -0.0105,0.0077 -0.0108,0.0071 -0.0111,0.0068 -0.0114,0.0062 -0.0116,0.0058 -0.0119,0.0053 -0.012,0.0048 -0.0123,0.0042 -0.0124,0.0038 -0.0126,0.0032 -0.0127,0.0027 -0.0128,0.0022 -0.0129,0.0016 -0.0129,0.0011 -0.013,5e-4 h -0.0065 V 29.15 h -11.25 v -3.1 h -11.25 v 1.2401 h 0.0065 l 0.013,5e-4 0.0129,0.0011 0.0129,0.0016 0.0128,0.0022 0.0127,0.0027 0.0126,0.0032 0.0124,0.0038 0.0123,0.0042 0.012,0.0048 0.0119,0.0053 0.0116,0.0058 0.0114,0.0062 0.0111,0.0068 0.0108,0.0071 0.0105,0.0077 0.0102,0.008 0.0098,0.0085 0.0095,0.0089 0.0091,0.0093 0.0087,0.0096 0.0082,0.01 0.0079,0.0104 0.0074,0.0106 0.007,0.011 0.0065,0.0113 0.006,0.0115 0.0055,0.0117 0.005,0.012 0.0046,0.0122 0.004,0.0123 0.0035,0.0125 0.0029,0.0126 0.0025,0.0128 0.0019,0.0128 0.0013,0.013 8e-4,0.0129 3e-4,0.013 -3e-4,0.013 -8e-4,0.0129 -0.0013,0.013 -0.0019,0.0128 -0.0025,0.0128 -0.0029,0.0126 -0.0035,0.0125 -0.004,0.0123 -0.0046,0.0122 -0.005,0.012 -0.0055,0.0117 -0.006,0.0115 -0.0065,0.0113 -0.007,0.011 -0.0074,0.0106 -0.0079,0.0104 -0.0082,0.01 -0.0087,0.0096 -0.0091,0.0093 -0.0095,0.0089 -0.0098,0.0085 -0.0102,0.008 -0.0105,0.0077 -0.0108,0.0071 -0.0111,0.0068 -0.0114,0.0062 -0.0116,0.0058 -0.0119,0.0053 -0.012,0.0048 -0.0123,0.0042 -0.0124,0.0038 -0.0126,0.0032 -0.0127,0.0027 -0.0128,0.0022 -0.0129,0.0016 -0.0129,0.0011 -0.013,5e-4 h -0.0065 V 29.15 H 0.05000305 Z"
     stroke="black"
     fill="lightgray"
     stroke-width="0.5"
     id="path1"
     style="fill:none;stroke:#ff0000;stroke-width:0.1" />
  <metadata
     id="metadata1">
    <rdf:RDF>
      <cc:Work
         rdf:about="">
        <dc:title>OpenSCAD Model</dc:title>
      </cc:Work>
    </rdf:RDF>
  </metadata>
  <text
     xml:space="preserve"
     style="font-size:3.175px;font-family:Gurajada;-inkscape-font-specification:'Gurajada, Normal';fill:none;stroke:#ff0000;stroke-width:0.1"
     x="47.973907"
     y="20.376945"
     id="text1"><tspan
       sodipodi:role="line"
       id="tspan1"
       style="font-style:normal;font-variant:normal;font-weight:normal;font-stretch:normal;font-size:8.46667px;font-family:Gurajada;-inkscape-font-specification:'Gurajada, Normal';font-variant-ligatures:normal;font-variant-caps:normal;font-variant-numeric:normal;font-variant-east-asian:normal;stroke:#0000ff;stroke-width:0.1"
       x="47.973907"
       y="20.376945">Power-Block-Hold-O-Matic</tspan></text>
</svg>
