<?xml version="1.0" encoding="UTF-8" standalone="no"?>
<svg
   width="63.200001mm"
   height="41.299999mm"
   viewBox="-72 -39 63.200001 41.299999"
   version="1.1"
   id="svg1"
   sodipodi:docname="voeding_linkerzijkant_3.1mm_01.svg"
   inkscape:version="1.3.1 (9b9bdc1480, 2023-11-25, custom)"
   xmlns:inkscape="http://www.inkscape.org/namespaces/inkscape"
   xmlns:sodipodi="http://sodipodi.sourceforge.net/DTD/sodipodi-0.dtd"
   xmlns="http://www.w3.org/2000/svg"
   xmlns:svg="http://www.w3.org/2000/svg"
   xmlns:rdf="http://www.w3.org/1999/02/22-rdf-syntax-ns#"
   xmlns:cc="http://creativecommons.org/ns#"
   xmlns:dc="http://purl.org/dc/elements/1.1/">
  <defs
     id="defs1" />
  <sodipodi:namedview
     id="namedview1"
     pagecolor="#505050"
     bordercolor="#ffffff"
     borderopacity="1"
     inkscape:showpageshadow="0"
     inkscape:pageopacity="0"
     inkscape:pagecheckerboard="1"
     inkscape:deskcolor="#505050"
     inkscape:document-units="mm"
     inkscape:zoom="11.364681"
     inkscape:cx="121.12087"
     inkscape:cy="77.960833"
     inkscape:window-width="3770"
     inkscape:window-height="2096"
     inkscape:window-x="0"
     inkscape:window-y="0"
     inkscape:window-maximized="1"
     inkscape:current-layer="svg1" />
  <title
     id="title1">OpenSCAD Model</title>
  <path
     d="m -71.95,-0.85 h 28 v -11.6327 l -0.1611,-0.0562 -0.2415,-0.0955 -0.2372,-0.1057 -0.2326,-0.1154 -0.2276,-0.1251 -0.2221,-0.1346 -0.2163,-0.1437 -0.2101,-0.1526 -0.2035,-0.1613 -0.1966,-0.1697 -0.1893,-0.1778 -0.1817,-0.1855 -0.1738,-0.193 -0.1655,-0.2001 -0.157,-0.2068 -0.1482,-0.2133 -0.1392,-0.2192 -0.1298,-0.2249 -0.1203,-0.2302 -0.1106,-0.2349 -0.1006,-0.2394 -0.0905,-0.2434 -0.0803,-0.247 -0.0698,-0.2501 -0.0593,-0.2528 -0.0487,-0.2551 -0.0379,-0.2569 -0.0272,-0.2583 -0.0163,-0.2592 -0.0054,-0.2596 0.0054,-0.2596 0.0163,-0.2592 0.0272,-0.2583 0.0379,-0.2569 0.0487,-0.2551 0.0593,-0.2528 0.0698,-0.2501 0.0803,-0.247 0.0905,-0.2434 0.1006,-0.2394 0.1106,-0.2349 0.1203,-0.2302 0.1298,-0.2249 0.1392,-0.2192 0.1482,-0.2133 0.157,-0.2068 0.1655,-0.2001 0.1738,-0.193 0.1817,-0.1855 0.1893,-0.1778 0.1966,-0.1697 0.2035,-0.1613 0.2101,-0.1526 0.2163,-0.1437 0.2221,-0.1346 0.2276,-0.1251 0.2326,-0.1154 0.2372,-0.1057 0.2415,-0.0955 0.2452,-0.0855 0.2486,-0.075 0.2515,-0.0646 0.254,-0.054 0.2561,-0.0433 0.2576,-0.0325 0.2588,-0.0218 0.2595,-0.0108 h 0.2596 l 0.2595,0.0108 0.2588,0.0218 0.2576,0.0325 0.2561,0.0433 0.254,0.054 0.2515,0.0646 0.2486,0.075 0.2452,0.0855 0.2415,0.0955 0.2372,0.1057 0.2326,0.1154 0.2276,0.1251 0.2221,0.1346 0.2163,0.1437 0.2101,0.1526 0.2035,0.1613 0.1966,0.1697 0.1893,0.1778 0.1817,0.1855 0.1738,0.193 0.1655,0.2001 0.157,0.2068 0.1482,0.2133 0.1392,0.2192 0.1298,0.2249 0.1203,0.2302 0.1106,0.2349 0.1006,0.2394 0.0905,0.2434 0.0803,0.247 0.0698,0.2501 0.0593,0.2528 0.0487,0.2551 0.0379,0.2569 0.0272,0.2583 0.0163,0.2592 0.0054,0.2596 -0.0054,0.2596 -0.0163,0.2592 -0.0272,0.2583 -0.0379,0.2569 -0.0487,0.2551 -0.0593,0.2528 -0.0698,0.2501 -0.0803,0.247 -0.0905,0.2434 -0.1006,0.2394 -0.1106,0.2349 -0.1203,0.2302 -0.1298,0.2249 -0.1392,0.2192 -0.1482,0.2133 -0.157,0.2068 -0.1655,0.2001 -0.1738,0.193 -0.1817,0.1855 -0.1893,0.1778 -0.1966,0.1697 -0.2035,0.1613 -0.2101,0.1526 -0.2163,0.1437 -0.2221,0.1346 -0.2276,0.1251 -0.2326,0.1154 -0.2372,0.1057 -0.2415,0.0955 -0.1611,0.0562 V 2.25 h 28 V -9.6 h 1.2401 v 0.00649 l 5e-4,0.01297 0.0011,0.01294 0.0016,0.01289 0.0022,0.0128 0.0027,0.0127 0.0032,0.01257 0.0038,0.01243 0.0042,0.01227 0.0048,0.01207 0.0053,0.01186 0.0058,0.01163 0.0062,0.01138 0.0068,0.01111 0.0071,0.01081 0.0077,0.01051 0.008,0.01017 0.0085,0.00983 0.0089,0.00947 0.0093,0.00908 0.0096,0.00869 0.01,0.00827 0.0104,0.00785 0.0106,0.00742 0.011,0.00695 0.0113,0.00649 0.0115,0.00602 0.0117,0.00553 0.012,0.00503 0.0122,0.00453 0.0123,0.00401 0.0125,0.00349 0.0126,0.00297 0.0128,0.00243 0.0128,0.0019 0.013,0.00135 0.0129,8.2e-4 0.013,2.7e-4 0.013,-2.7e-4 0.0129,-8.2e-4 0.013,-0.00135 0.0128,-0.0019 0.0128,-0.00243 0.0126,-0.00297 0.0125,-0.00349 0.0123,-0.00401 0.0122,-0.00453 0.012,-0.00503 0.0117,-0.00553 0.0115,-0.00602 0.0113,-0.00649 0.011,-0.00695 0.0106,-0.00742 0.0104,-0.00785 0.01,-0.00827 0.0096,-0.00869 0.0093,-0.00908 0.0089,-0.00947 0.0085,-0.00983 0.008,-0.01017 0.0077,-0.01051 0.0071,-0.01081 0.0068,-0.01111 0.0062,-0.01138 0.0058,-0.01163 0.0053,-0.01186 0.0048,-0.01207 0.0042,-0.01227 0.0038,-0.01243 0.0032,-0.01257 0.0027,-0.0127 0.0022,-0.0128 0.0016,-0.01289 0.0011,-0.01294 5e-4,-0.01297 V -9.6 H -8.85 v -8.75 h -3.1 v -8.75 h 1.2401 v 0.0065 l 5e-4,0.013 0.0011,0.0129 0.0016,0.0129 0.0022,0.0128 0.0027,0.0127 0.0032,0.0126 0.0038,0.0124 0.0042,0.0123 0.0048,0.012 0.0053,0.0119 0.0058,0.0116 0.0062,0.0114 0.0068,0.0111 0.0071,0.0108 0.0077,0.0105 0.008,0.0102 0.0085,0.0098 0.0089,0.0095 0.0093,0.0091 0.0096,0.0087 0.01,0.0082 0.0104,0.0079 0.0106,0.0074 0.011,0.007 0.0113,0.0065 0.0115,0.006 0.0117,0.0055 0.012,0.005 0.0122,0.0046 0.0123,0.004 0.0125,0.0035 0.0126,0.0029 0.0128,0.0025 0.0128,0.0019 0.013,0.0013 0.0129,8e-4 0.013,3e-4 0.013,-3e-4 0.0129,-8e-4 0.013,-0.0013 0.0128,-0.0019 0.0128,-0.0025 0.0126,-0.0029 0.0125,-0.0035 0.0123,-0.004 0.0122,-0.0046 0.012,-0.005 0.0117,-0.0055 0.0115,-0.006 0.0113,-0.0065 0.011,-0.007 0.0106,-0.0074 0.0104,-0.0079 0.01,-0.0082 0.0096,-0.0087 0.0093,-0.0091 0.0089,-0.0095 0.0085,-0.0098 0.008,-0.0102 0.0077,-0.0105 0.0071,-0.0108 0.0068,-0.0111 0.0062,-0.0114 0.0058,-0.0116 0.0053,-0.0119 0.0048,-0.012 0.0042,-0.0123 0.0038,-0.0124 0.0032,-0.0126 0.0027,-0.0127 0.0022,-0.0128 0.0016,-0.0129 0.0011,-0.0129 5e-4,-0.013 V -27.1 H -8.85 v -8.75 h -13.1 v -1.2401 h 0.0065 l 0.013,-5e-4 0.0129,-0.0011 0.0129,-0.0016 0.0128,-0.0022 0.0127,-0.0027 0.0126,-0.0032 0.0124,-0.0038 0.0123,-0.0042 0.012,-0.0048 0.0119,-0.0053 0.0116,-0.0058 0.0114,-0.0062 0.0111,-0.0068 0.0108,-0.0071 0.0105,-0.0077 0.0102,-0.008 0.0098,-0.0085 0.0095,-0.0089 0.0091,-0.0093 0.0087,-0.0096 0.0082,-0.01 0.0079,-0.0104 0.0074,-0.0106 0.007,-0.011 0.0065,-0.0113 0.006,-0.0115 0.0055,-0.0117 0.005,-0.012 0.0046,-0.0122 0.004,-0.0123 0.0035,-0.0125 0.0029,-0.0126 0.0025,-0.0128 0.0019,-0.0128 0.0013,-0.013 8e-4,-0.0129 3e-4,-0.013 -3e-4,-0.013 -8e-4,-0.0129 -0.0013,-0.013 -0.0019,-0.0128 -0.0025,-0.0128 -0.0029,-0.0126 -0.0035,-0.0125 -0.004,-0.0123 -0.0046,-0.0122 -0.005,-0.012 -0.0055,-0.0117 -0.006,-0.0115 -0.0065,-0.0113 -0.007,-0.011 -0.0074,-0.0106 -0.0079,-0.0104 -0.0082,-0.01 -0.0087,-0.0096 -0.0091,-0.0093 -0.0095,-0.0089 -0.0098,-0.0085 -0.0102,-0.008 -0.0105,-0.0077 -0.0108,-0.0071 -0.0111,-0.0068 -0.0114,-0.0062 -0.0116,-0.0058 -0.0119,-0.0053 -0.012,-0.0048 -0.0123,-0.0042 -0.0124,-0.0038 -0.0126,-0.0032 -0.0127,-0.0027 -0.0128,-0.0022 -0.0129,-0.0016 -0.0129,-0.0011 -0.013,-5e-4 H -21.95 V -38.95 h -10 v 3.1 h -10 v -1.2401 h 0.0065 l 0.013,-5e-4 0.0129,-0.0011 0.0129,-0.0016 0.0128,-0.0022 0.0127,-0.0027 0.0126,-0.0032 0.0124,-0.0038 0.0123,-0.0042 0.012,-0.0048 0.0119,-0.0053 0.0116,-0.0058 0.0114,-0.0062 0.0111,-0.0068 0.0108,-0.0071 0.0105,-0.0077 0.0102,-0.008 0.0098,-0.0085 0.0095,-0.0089 0.0091,-0.0093 0.0087,-0.0096 0.0082,-0.01 0.0079,-0.0104 0.0074,-0.0106 0.007,-0.011 0.0065,-0.0113 0.006,-0.0115 0.0055,-0.0117 0.005,-0.012 0.0046,-0.0122 0.004,-0.0123 0.0035,-0.0125 0.0029,-0.0126 0.0025,-0.0128 0.0019,-0.0128 0.0013,-0.013 8e-4,-0.0129 3e-4,-0.013 -3e-4,-0.013 -8e-4,-0.0129 -0.0013,-0.013 -0.0019,-0.0128 -0.0025,-0.0128 -0.0029,-0.0126 -0.0035,-0.0125 -0.004,-0.0123 -0.0046,-0.0122 -0.005,-0.012 -0.0055,-0.0117 -0.006,-0.0115 -0.0065,-0.0113 -0.007,-0.011 -0.0074,-0.0106 -0.0079,-0.0104 -0.0082,-0.01 -0.0087,-0.0096 -0.0091,-0.0093 -0.0095,-0.0089 -0.0098,-0.0085 -0.0102,-0.008 -0.0105,-0.0077 -0.0108,-0.0071 -0.0111,-0.0068 -0.0114,-0.0062 -0.0116,-0.0058 -0.0119,-0.0053 -0.012,-0.0048 -0.0123,-0.0042 -0.0124,-0.0038 -0.0126,-0.0032 -0.0127,-0.0027 -0.0128,-0.0022 -0.0129,-0.0016 -0.0129,-0.0011 -0.013,-5e-4 H -41.95 V -38.95 h -10 v 3.1 h -10 v -1.2401 h 0.0065 l 0.013,-5e-4 0.0129,-0.0011 0.0129,-0.0016 0.0128,-0.0022 0.0127,-0.0027 0.0126,-0.0032 0.0124,-0.0038 0.0123,-0.0042 0.012,-0.0048 0.0119,-0.0053 0.0116,-0.0058 0.0114,-0.0062 0.0111,-0.0068 0.0108,-0.0071 0.0105,-0.0077 0.0102,-0.008 0.0098,-0.0085 0.0095,-0.0089 0.0091,-0.0093 0.0087,-0.0096 0.0082,-0.01 0.0079,-0.0104 0.0074,-0.0106 0.007,-0.011 0.0065,-0.0113 0.006,-0.0115 0.0055,-0.0117 0.005,-0.012 0.0046,-0.0122 0.004,-0.0123 0.0035,-0.0125 0.0029,-0.0126 0.0025,-0.0128 0.0019,-0.0128 0.0013,-0.013 8e-4,-0.0129 3e-4,-0.013 -3e-4,-0.013 -8e-4,-0.0129 -0.0013,-0.013 -0.0019,-0.0128 -0.0025,-0.0128 -0.0029,-0.0126 -0.0035,-0.0125 -0.004,-0.0123 -0.0046,-0.0122 -0.005,-0.012 -0.0055,-0.0117 -0.006,-0.0115 -0.0065,-0.0113 -0.007,-0.011 -0.0074,-0.0106 -0.0079,-0.0104 -0.0082,-0.01 -0.0087,-0.0096 -0.0091,-0.0093 -0.0095,-0.0089 -0.0098,-0.0085 -0.0102,-0.008 -0.0105,-0.0077 -0.0108,-0.0071 -0.0111,-0.0068 -0.0114,-0.0062 -0.0116,-0.0058 -0.0119,-0.0053 -0.012,-0.0048 -0.0123,-0.0042 -0.0124,-0.0038 -0.0126,-0.0032 -0.0127,-0.0027 -0.0128,-0.0022 -0.0129,-0.0016 -0.0129,-0.0011 -0.013,-5e-4 H -61.95 V -38.95 h -10 z"
     stroke="black"
     fill="lightgray"
     stroke-width="0.5"
     id="path1"
     style="fill:none;stroke:#ff0000;stroke-width:0.1" />
  <metadata
     id="metadata1">
    <rdf:RDF>
      <cc:Work
         rdf:about="">
        <dc:title>OpenSCAD Model</dc:title>
      </cc:Work>
    </rdf:RDF>
  </metadata>
</svg>
