<?xml version="1.0" encoding="UTF-8" standalone="no"?>
<svg
   width="63.200001mm"
   height="41.299999mm"
   viewBox="185 -39 63.200001 41.299999"
   version="1.1"
   id="svg1"
   sodipodi:docname="voeding_rechterzijkant_3.1mm_02.svg"
   inkscape:version="1.3.1 (9b9bdc1480, 2023-11-25, custom)"
   xmlns:inkscape="http://www.inkscape.org/namespaces/inkscape"
   xmlns:sodipodi="http://sodipodi.sourceforge.net/DTD/sodipodi-0.dtd"
   xmlns="http://www.w3.org/2000/svg"
   xmlns:svg="http://www.w3.org/2000/svg"
   xmlns:rdf="http://www.w3.org/1999/02/22-rdf-syntax-ns#"
   xmlns:cc="http://creativecommons.org/ns#"
   xmlns:dc="http://purl.org/dc/elements/1.1/">
  <defs
     id="defs1" />
  <sodipodi:namedview
     id="namedview1"
     pagecolor="#505050"
     bordercolor="#ffffff"
     borderopacity="1"
     inkscape:showpageshadow="0"
     inkscape:pageopacity="0"
     inkscape:pagecheckerboard="1"
     inkscape:deskcolor="#505050"
     inkscape:document-units="mm"
     inkscape:zoom="11.364681"
     inkscape:cx="117.68918"
     inkscape:cy="77.960833"
     inkscape:window-width="3770"
     inkscape:window-height="2096"
     inkscape:window-x="0"
     inkscape:window-y="0"
     inkscape:window-maximized="1"
     inkscape:current-layer="svg1" />
  <title
     id="title1">OpenSCAD Model</title>
  <path
     d="m 185.05,-0.85 h 3.1 v 3.1 h 30 v -18.6 h -12.132 l -0.013,0.039 -0.09,0.2434 -0.101,0.2394 -0.111,0.2349 -0.12,0.2302 -0.13,0.2249 -0.139,0.2192 -0.148,0.2133 -0.157,0.2068 -0.166,0.2001 -0.173,0.193 -0.182,0.1855 -0.189,0.1778 -0.197,0.1697 -0.203,0.1613 -0.211,0.1526 -0.216,0.1437 -0.222,0.1346 -0.228,0.1251 -0.232,0.1154 -0.237,0.1057 -0.242,0.0955 -0.245,0.0855 -0.249,0.075 -0.251,0.0646 -0.254,0.054 -0.256,0.0433 -0.258,0.0325 -0.259,0.0218 -0.259,0.0108 h -0.26 l -0.259,-0.0108 -0.259,-0.0218 -0.258,-0.0325 -0.256,-0.0433 -0.254,-0.054 -0.251,-0.0646 -0.249,-0.075 -0.245,-0.0855 -0.242,-0.0955 -0.237,-0.1057 -0.232,-0.1154 -0.228,-0.1251 -0.222,-0.1346 -0.216,-0.1437 -0.211,-0.1526 -0.203,-0.1613 -0.197,-0.1697 -0.189,-0.1778 -0.182,-0.1855 -0.173,-0.193 -0.166,-0.2001 -0.157,-0.2068 -0.148,-0.2133 -0.139,-0.2192 -0.13,-0.2249 -0.12,-0.2302 -0.111,-0.2349 -0.101,-0.2394 -0.09,-0.2434 -0.08,-0.247 -0.07,-0.2501 -0.06,-0.2528 -0.048,-0.2551 -0.038,-0.2569 -0.027,-0.2583 -0.017,-0.2592 -0.005,-0.2596 0.005,-0.2596 0.017,-0.2592 0.027,-0.2583 0.038,-0.2569 0.048,-0.2551 0.06,-0.2528 0.07,-0.2501 0.08,-0.247 0.09,-0.2434 0.101,-0.2394 0.111,-0.2349 0.12,-0.2302 0.13,-0.2249 0.139,-0.2192 0.148,-0.2133 0.157,-0.2068 0.166,-0.2001 0.173,-0.193 0.182,-0.1855 0.189,-0.1778 0.197,-0.1697 0.203,-0.1613 0.211,-0.1526 0.216,-0.1437 0.222,-0.1346 0.228,-0.1251 0.232,-0.1154 0.237,-0.1057 0.242,-0.0955 0.245,-0.0855 0.249,-0.075 0.251,-0.0646 0.254,-0.054 0.256,-0.0433 0.258,-0.0325 0.259,-0.0218 0.259,-0.0108 h 0.26 l 0.259,0.0108 0.259,0.0218 0.258,0.0325 0.256,0.0433 0.254,0.054 0.251,0.0646 0.249,0.075 0.245,0.0855 0.242,0.0955 0.237,0.1057 0.232,0.1154 0.228,0.1251 0.222,0.1346 0.216,0.1437 0.211,0.1526 0.203,0.1613 0.197,0.1697 0.189,0.1778 0.182,0.1855 0.173,0.193 0.166,0.2001 0.157,0.2068 0.148,0.2133 0.139,0.2192 0.13,0.2249 0.12,0.2302 0.111,0.2349 0.101,0.2394 0.09,0.2434 0.013,0.039 h 12.132 v -0.1 h 4 v 19.6 h 26 v -35 h -10 v -1.2401 h 0.006 l 0.013,-5e-4 0.013,-0.0011 0.013,-0.0016 0.013,-0.0022 0.013,-0.0027 0.012,-0.0032 0.013,-0.0038 0.012,-0.0042 0.012,-0.0048 0.012,-0.0053 0.012,-0.0058 0.011,-0.0062 0.011,-0.0068 0.011,-0.0071 0.01,-0.0077 0.011,-0.008 0.009,-0.0085 0.01,-0.0089 0.009,-0.0093 0.009,-0.0096 0.008,-0.01 0.008,-0.0104 0.007,-0.0106 0.007,-0.011 0.007,-0.0113 0.006,-0.0115 0.005,-0.0117 0.005,-0.012 0.005,-0.0122 0.004,-0.0123 0.003,-0.0125 0.003,-0.0126 0.003,-0.0128 0.002,-0.0128 0.001,-0.013 0.001,-0.0129 v -0.013 -0.013 l -0.001,-0.0129 -0.001,-0.013 -0.002,-0.0128 -0.003,-0.0128 -0.003,-0.0126 -0.003,-0.0125 -0.004,-0.0123 -0.005,-0.0122 -0.005,-0.012 -0.005,-0.0117 -0.006,-0.0115 -0.007,-0.0113 -0.007,-0.011 -0.007,-0.0106 -0.008,-0.0104 -0.008,-0.01 -0.009,-0.0096 -0.009,-0.0093 -0.01,-0.0089 -0.009,-0.0085 -0.011,-0.008 -0.01,-0.0077 -0.011,-0.0071 -0.011,-0.0068 -0.011,-0.0062 -0.012,-0.0058 -0.012,-0.0053 -0.012,-0.0048 -0.012,-0.0042 -0.013,-0.0038 -0.012,-0.0032 -0.013,-0.0027 -0.013,-0.0022 -0.013,-0.0016 -0.013,-0.0011 -0.013,-5e-4 H 238.15 V -38.95 h -10 v 3.1 h -10 v -1.2401 h 0.006 l 0.013,-5e-4 0.013,-0.0011 0.013,-0.0016 0.013,-0.0022 0.013,-0.0027 0.012,-0.0032 0.013,-0.0038 0.012,-0.0042 0.012,-0.0048 0.012,-0.0053 0.012,-0.0058 0.011,-0.0062 0.011,-0.0068 0.011,-0.0071 0.01,-0.0077 0.011,-0.008 0.009,-0.0085 0.01,-0.0089 0.009,-0.0093 0.009,-0.0096 0.008,-0.01 0.008,-0.0104 0.007,-0.0106 0.007,-0.011 0.007,-0.0113 0.006,-0.0115 0.005,-0.0117 0.005,-0.012 0.005,-0.0122 0.004,-0.0123 0.003,-0.0125 0.003,-0.0126 0.003,-0.0128 0.002,-0.0128 0.001,-0.013 0.001,-0.0129 v -0.013 -0.013 l -0.001,-0.0129 -0.001,-0.013 -0.002,-0.0128 -0.003,-0.0128 -0.003,-0.0126 -0.003,-0.0125 -0.004,-0.0123 -0.005,-0.0122 -0.005,-0.012 -0.005,-0.0117 -0.006,-0.0115 -0.007,-0.0113 -0.007,-0.011 -0.007,-0.0106 -0.008,-0.0104 -0.008,-0.01 -0.009,-0.0096 -0.009,-0.0093 -0.01,-0.0089 -0.009,-0.0085 -0.011,-0.008 -0.01,-0.0077 -0.011,-0.0071 -0.011,-0.0068 -0.011,-0.0062 -0.012,-0.0058 -0.012,-0.0053 -0.012,-0.0048 -0.012,-0.0042 -0.013,-0.0038 -0.012,-0.0032 -0.013,-0.0027 -0.013,-0.0022 -0.013,-0.0016 -0.013,-0.0011 -0.013,-5e-4 H 218.15 V -38.95 h -10 v 3.1 h -10 v -1.2401 h 0.006 l 0.013,-5e-4 0.013,-0.0011 0.013,-0.0016 0.013,-0.0022 0.013,-0.0027 0.012,-0.0032 0.013,-0.0038 0.012,-0.0042 0.012,-0.0048 0.012,-0.0053 0.012,-0.0058 0.011,-0.0062 0.011,-0.0068 0.011,-0.0071 0.01,-0.0077 0.011,-0.008 0.009,-0.0085 0.01,-0.0089 0.009,-0.0093 0.009,-0.0096 0.008,-0.01 0.008,-0.0104 0.007,-0.0106 0.007,-0.011 0.007,-0.0113 0.006,-0.0115 0.005,-0.0117 0.005,-0.012 0.005,-0.0122 0.004,-0.0123 0.003,-0.0125 0.003,-0.0126 0.003,-0.0128 0.002,-0.0128 0.001,-0.013 0.001,-0.0129 v -0.013 -0.013 l -0.001,-0.0129 -0.001,-0.013 -0.002,-0.0128 -0.003,-0.0128 -0.003,-0.0126 -0.003,-0.0125 -0.004,-0.0123 -0.005,-0.0122 -0.005,-0.012 -0.005,-0.0117 -0.006,-0.0115 -0.007,-0.0113 -0.007,-0.011 -0.007,-0.0106 -0.008,-0.0104 -0.008,-0.01 -0.009,-0.0096 -0.009,-0.0093 -0.01,-0.0089 -0.009,-0.0085 -0.011,-0.008 -0.01,-0.0077 -0.011,-0.0071 -0.011,-0.0068 -0.011,-0.0062 -0.012,-0.0058 -0.012,-0.0053 -0.012,-0.0048 -0.012,-0.0042 -0.013,-0.0038 -0.012,-0.0032 -0.013,-0.0027 -0.013,-0.0022 -0.013,-0.0016 -0.013,-0.0011 -0.013,-5e-4 H 198.15 V -38.95 h -10 v 11.85 h -1.24 v -0.0065 l -0.001,-0.013 -0.001,-0.0129 -10e-4,-0.0129 -0.002,-0.0128 -0.003,-0.0127 -0.003,-0.0126 -0.004,-0.0124 -0.004,-0.0123 -0.005,-0.012 -0.006,-0.0119 -0.005,-0.0116 -0.007,-0.0114 -0.006,-0.0111 -0.007,-0.0108 -0.008,-0.0105 -0.008,-0.0102 -0.009,-0.0098 -0.009,-0.0095 -0.009,-0.0091 -0.009,-0.0087 -0.01,-0.0082 -0.011,-0.0079 -0.01,-0.0074 -0.011,-0.007 -0.012,-0.0065 -0.011,-0.006 -0.012,-0.0055 -0.012,-0.005 -0.012,-0.0046 -0.012,-0.004 -0.013,-0.0035 -0.013,-0.0029 -0.012,-0.0025 -0.013,-0.0019 -0.013,-0.0013 -0.013,-8e-4 -0.013,-3e-4 -0.013,3e-4 -0.013,8e-4 -0.013,0.0013 -0.013,0.0019 -0.012,0.0025 -0.013,0.0029 -0.013,0.0035 -0.012,0.004 -0.012,0.0046 -0.012,0.005 -0.012,0.0055 -0.011,0.006 -0.012,0.0065 -0.011,0.007 -0.01,0.0074 -0.011,0.0079 -0.01,0.0082 -0.009,0.0087 -0.009,0.0091 -0.009,0.0095 -0.009,0.0098 -0.008,0.0102 -0.008,0.0105 -0.007,0.0108 -0.006,0.0111 -0.007,0.0114 -0.005,0.0116 -0.006,0.0119 -0.005,0.012 -0.004,0.0123 -0.004,0.0124 -0.003,0.0126 -0.003,0.0127 -0.002,0.0128 -0.001,0.0129 -0.001,0.0129 -0.001,0.013 V -27.1 h -1.24 v 8.75 h 3.1 v 8.75 h -1.24 v -0.00649 l -0.001,-0.01297 -0.001,-0.01294 -10e-4,-0.01289 -0.002,-0.0128 -0.003,-0.0127 -0.003,-0.01257 -0.004,-0.01243 -0.004,-0.01227 -0.005,-0.01207 -0.006,-0.01186 -0.005,-0.01163 -0.007,-0.01138 -0.006,-0.01111 -0.007,-0.01081 -0.008,-0.01051 -0.008,-0.01017 -0.009,-0.00983 -0.009,-0.00947 -0.009,-0.00908 -0.009,-0.00869 -0.01,-0.00827 -0.011,-0.00785 -0.01,-0.00742 -0.011,-0.00695 -0.012,-0.00649 -0.011,-0.00602 -0.012,-0.00553 -0.012,-0.00503 -0.012,-0.00453 -0.012,-0.00401 -0.013,-0.00349 -0.013,-0.00297 -0.012,-0.00243 -0.013,-0.0019 -0.013,-0.00135 -0.013,-8.2e-4 -0.013,-2.7e-4 -0.013,2.7e-4 -0.013,8.2e-4 -0.013,0.00135 -0.013,0.0019 -0.012,0.00243 -0.013,0.00297 -0.013,0.00349 -0.012,0.00401 -0.012,0.00453 -0.012,0.00503 -0.012,0.00553 -0.011,0.00602 -0.012,0.00649 -0.011,0.00695 -0.01,0.00742 -0.011,0.00785 -0.01,0.00827 -0.009,0.00869 -0.009,0.00908 -0.009,0.00947 -0.009,0.00983 -0.008,0.01017 -0.008,0.01051 -0.007,0.01081 -0.006,0.01111 -0.007,0.01138 -0.005,0.01163 -0.006,0.01186 -0.005,0.01207 -0.004,0.01227 -0.004,0.01243 -0.003,0.01257 -0.003,0.0127 -0.002,0.0128 -0.001,0.01289 -0.001,0.01294 -0.001,0.01297 V -9.6 h -1.24 z"
     stroke="black"
     fill="lightgray"
     stroke-width="0.5"
     id="path1"
     style="fill:none;stroke:#ff0000;stroke-width:0.1" />
  <metadata
     id="metadata1">
    <rdf:RDF>
      <cc:Work
         rdf:about="">
        <dc:title>OpenSCAD Model</dc:title>
      </cc:Work>
    </rdf:RDF>
  </metadata>
</svg>
