<?xml version="1.0" encoding="UTF-8" standalone="no"?>
<svg
   width="186.3mm"
   height="63.200001mm"
   viewBox="-4 -114 186.3 63.200001"
   version="1.1"
   id="svg1"
   sodipodi:docname="voeding_achterkant_3.1mm_01.svg"
   inkscape:version="1.3.1 (9b9bdc1480, 2023-11-25, custom)"
   xmlns:inkscape="http://www.inkscape.org/namespaces/inkscape"
   xmlns:sodipodi="http://sodipodi.sourceforge.net/DTD/sodipodi-0.dtd"
   xmlns="http://www.w3.org/2000/svg"
   xmlns:svg="http://www.w3.org/2000/svg"
   xmlns:rdf="http://www.w3.org/1999/02/22-rdf-syntax-ns#"
   xmlns:cc="http://creativecommons.org/ns#"
   xmlns:dc="http://purl.org/dc/elements/1.1/">
  <defs
     id="defs1" />
  <sodipodi:namedview
     id="namedview1"
     pagecolor="#505050"
     bordercolor="#ffffff"
     borderopacity="1"
     inkscape:showpageshadow="0"
     inkscape:pageopacity="0"
     inkscape:pagecheckerboard="1"
     inkscape:deskcolor="#505050"
     inkscape:document-units="mm"
     inkscape:zoom="3.8688276"
     inkscape:cx="352.17388"
     inkscape:cy="121.22536"
     inkscape:window-width="3770"
     inkscape:window-height="2096"
     inkscape:window-x="0"
     inkscape:window-y="0"
     inkscape:window-maximized="1"
     inkscape:current-layer="svg1" />
  <title
     id="title1">OpenSCAD Model</title>
  <path
     d="M -3.95,-53.95 H 10.4 v 3.1 h 11.25 v -3.1 H 32.9 v 3.1 h 11.25 v -3.1 H 55.4 v 3.1 h 11.25 v -3.1 H 77.9 v 3.1 h 11.25 v -3.1 h 11.25 v 3.1 h 11.25 v -3.1 h 11.25 v 3.1 h 11.25 v -3.1 h 11.25 v 3.1 h 11.25 v -3.1 h 11.25 v 3.1 h 11.25 v -13.1 h 3.1 v -10 h -3.1 v -10 h 3.1 v -10 h -3.1 v -10 h 3.1 v -10 H -0.85 v 10 h -3.1 v 10 h 3.1 v 10 h -3.1 v 10 h 3.1 v 10 h -3.1 z m 44.2,-55.2 0.0014,-0.067 0.0042,-0.067 0.007,-0.067 0.0098,-0.066 0.0126,-0.066 0.0153,-0.065 0.018,-0.064 0.0207,-0.064 0.0234,-0.063 0.0259,-0.062 0.0286,-0.06 0.031,-0.06 0.0335,-0.058 0.0359,-0.056 0.0383,-0.055 0.0405,-0.054 0.0427,-0.051 0.0448,-0.05 0.0469,-0.048 0.0489,-0.046 0.0507,-0.044 0.0525,-0.041 0.0543,-0.04 0.0558,-0.037 0.0573,-0.035 0.0587,-0.032 0.0601,-0.03 0.0612,-0.027 0.0623,-0.025 0.0633,-0.022 0.0641,-0.019 0.0649,-0.017 0.0656,-0.014 0.0661,-0.011 0.0665,-0.008 0.0667,-0.006 0.067,-0.003 h 0.067 l 0.067,0.003 0.0667,0.006 0.0665,0.008 0.0661,0.011 0.0656,0.014 0.0649,0.017 0.0641,0.019 0.0633,0.022 0.0623,0.025 0.0612,0.027 0.0601,0.03 0.0587,0.032 0.0573,0.035 0.0558,0.037 0.0543,0.04 0.0525,0.041 0.0507,0.044 0.0489,0.046 0.0468,0.048 0.0449,0.05 0.0427,0.051 0.0405,0.054 0.0383,0.055 0.0359,0.056 0.0335,0.058 0.031,0.06 0.0286,0.06 0.0259,0.062 0.0234,0.063 0.0207,0.064 0.018,0.064 0.0153,0.065 0.0126,0.066 0.0098,0.066 0.007,0.067 0.0042,0.067 0.0014,0.067 -0.0014,0.067 -0.0042,0.067 -0.007,0.067 -0.0098,0.066 -0.0126,0.066 -0.0153,0.065 -0.018,0.064 -0.0207,0.064 -0.0234,0.063 -0.0259,0.062 -0.0286,0.06 -0.031,0.06 -0.0335,0.058 -0.0359,0.056 -0.0383,0.055 -0.0405,0.054 -0.0427,0.051 -0.0449,0.05 -0.0468,0.048 -0.0489,0.046 -0.0507,0.044 -0.0525,0.041 -0.0543,0.04 -0.0558,0.037 -0.0573,0.035 -0.0587,0.032 -0.0601,0.03 -0.0612,0.027 -0.0623,0.025 -0.0633,0.022 -0.0641,0.019 -0.0649,0.017 -0.0656,0.014 -0.0661,0.011 -0.0665,0.008 -0.0667,0.006 -0.067,0.003 h -0.067 l -0.067,-0.003 -0.0667,-0.006 -0.0665,-0.008 -0.0661,-0.011 -0.0656,-0.014 -0.0649,-0.017 -0.0641,-0.019 -0.0633,-0.022 -0.0623,-0.025 -0.0612,-0.027 -0.0601,-0.03 -0.0587,-0.032 -0.0573,-0.035 -0.0558,-0.037 -0.0543,-0.04 -0.0525,-0.041 -0.0507,-0.044 -0.0489,-0.046 -0.0469,-0.048 -0.0448,-0.05 -0.0427,-0.051 -0.0405,-0.054 -0.0383,-0.055 -0.0359,-0.056 -0.0335,-0.058 -0.031,-0.06 -0.0286,-0.06 -0.0259,-0.062 -0.0234,-0.063 -0.0207,-0.064 -0.018,-0.064 -0.0153,-0.065 -0.0126,-0.066 -0.0098,-0.066 -0.007,-0.067 -0.0042,-0.067 z m 94.5,0 0.001,-0.067 0.005,-0.067 0.007,-0.067 0.009,-0.066 0.013,-0.066 0.015,-0.065 0.018,-0.064 0.021,-0.064 0.023,-0.063 0.026,-0.062 0.029,-0.06 0.031,-0.06 0.033,-0.058 0.036,-0.056 0.039,-0.055 0.04,-0.054 0.043,-0.051 0.045,-0.05 0.047,-0.048 0.048,-0.046 0.051,-0.044 0.053,-0.041 0.054,-0.04 0.056,-0.037 0.057,-0.035 0.059,-0.032 0.06,-0.03 0.061,-0.027 0.062,-0.025 0.064,-0.022 0.064,-0.019 0.065,-0.017 0.065,-0.014 0.066,-0.011 0.067,-0.008 0.067,-0.006 0.066,-0.003 h 0.068 l 0.066,0.003 0.067,0.006 0.067,0.008 0.066,0.011 0.065,0.014 0.065,0.017 0.064,0.019 0.064,0.022 0.062,0.025 0.061,0.027 0.06,0.03 0.059,0.032 0.057,0.035 0.056,0.037 0.054,0.04 0.053,0.041 0.051,0.044 0.048,0.046 0.047,0.048 0.045,0.05 0.043,0.051 0.04,0.054 0.039,0.055 0.036,0.056 0.033,0.058 0.031,0.06 0.029,0.06 0.026,0.062 0.023,0.063 0.021,0.064 0.018,0.064 0.015,0.065 0.013,0.066 0.009,0.066 0.007,0.067 0.005,0.067 10e-4,0.067 -10e-4,0.067 -0.005,0.067 -0.007,0.067 -0.009,0.066 -0.013,0.066 -0.015,0.065 -0.018,0.064 -0.021,0.064 -0.023,0.063 -0.026,0.062 -0.029,0.06 -0.031,0.06 -0.033,0.058 -0.036,0.056 -0.039,0.055 -0.04,0.054 -0.043,0.051 -0.045,0.05 -0.047,0.048 -0.048,0.046 -0.051,0.044 -0.053,0.041 -0.054,0.04 -0.056,0.037 -0.057,0.035 -0.059,0.032 -0.06,0.03 -0.061,0.027 -0.062,0.025 -0.064,0.022 -0.064,0.019 -0.065,0.017 -0.065,0.014 -0.066,0.011 -0.067,0.008 -0.067,0.006 -0.066,0.003 h -0.068 l -0.066,-0.003 -0.067,-0.006 -0.067,-0.008 -0.066,-0.011 -0.065,-0.014 -0.065,-0.017 -0.064,-0.019 -0.064,-0.022 -0.062,-0.025 -0.061,-0.027 -0.06,-0.03 -0.059,-0.032 -0.057,-0.035 -0.056,-0.037 -0.054,-0.04 -0.053,-0.041 -0.051,-0.044 -0.048,-0.046 -0.047,-0.048 -0.045,-0.05 -0.043,-0.051 -0.04,-0.054 -0.039,-0.055 -0.036,-0.056 -0.033,-0.058 -0.031,-0.06 -0.029,-0.06 -0.026,-0.062 -0.023,-0.063 -0.021,-0.064 -0.018,-0.064 -0.015,-0.065 -0.013,-0.066 -0.009,-0.066 -0.007,-0.067 -0.005,-0.067 z"
     stroke="black"
     fill="lightgray"
     stroke-width="0.5"
     id="path1"
     style="fill:none;stroke:#ff0000;stroke-width:0.1" />
  <metadata
     id="metadata1">
    <rdf:RDF>
      <cc:Work
         rdf:about="">
        <dc:title>OpenSCAD Model</dc:title>
      </cc:Work>
    </rdf:RDF>
  </metadata>
</svg>
